<?xml version="1.0" standalone="no"?>
<!DOCTYPE svg PUBLIC "-//W3C//DTD SVG 20010904//EN"
 "http://www.w3.org/TR/2001/REC-SVG-20010904/DTD/svg10.dtd">
<svg version="1.0" xmlns="http://www.w3.org/2000/svg"
 width="225.000000pt" height="225.000000pt" viewBox="0 0 225.000000 225.000000"
 preserveAspectRatio="xMidYMid meet">

<g transform="translate(0.000000,225.000000) scale(0.100000,-0.100000)"
fill="#000000" stroke="none">
<path d="M893 2232 c-24 -2 -43 -7 -43 -11 0 -5 -11 -6 -24 -4 -52 10 -333
-77 -319 -100 3 -6 1 -7 -5 -3 -12 7 -57 -13 -105 -46 -24 -17 -26 -22 -15
-36 12 -15 11 -16 -6 -2 -17 13 -20 12 -41 -12 -13 -15 -25 -25 -28 -22 -7 7
-77 -78 -72 -87 3 -4 0 -11 -6 -15 -8 -4 -9 -3 -5 4 4 7 5 12 2 12 -14 0 -77
-110 -70 -121 4 -8 3 -10 -4 -5 -7 4 -12 2 -12 -3 0 -19 -3 -26 -15 -36 -17
-13 -36 -75 -28 -88 4 -6 1 -7 -7 -2 -10 6 -12 4 -7 -8 3 -9 1 -17 -4 -19 -6
-2 -11 -20 -12 -40 -1 -20 -6 -34 -11 -31 -5 4 -7 -6 -4 -20 3 -16 1 -24 -5
-20 -5 3 -6 -3 -3 -15 4 -11 3 -23 -3 -26 -16 -10 -24 -126 -23 -363 0 -212 6
-303 19 -327 3 -4 7 -25 8 -45 5 -65 86 -281 105 -281 4 0 7 -6 7 -13 0 -21
55 -97 66 -90 5 3 7 1 3 -5 -3 -6 3 -17 14 -25 11 -7 17 -16 14 -20 -3 -3 27
-33 68 -66 77 -64 236 -152 280 -154 14 -1 25 -4 23 -7 -5 -8 135 -43 142 -36
4 3 11 2 17 -3 37 -28 450 -39 616 -15 164 24 379 91 365 115 -3 4 0 11 6 15
8 4 9 3 5 -4 -18 -30 47 7 137 76 49 39 55 47 45 61 -11 14 -11 14 3 3 13 -10
19 -9 29 3 7 8 9 15 5 15 -4 0 4 9 17 20 36 27 91 117 82 131 -4 7 -3 9 3 6
14 -9 92 158 78 171 -2 3 0 11 6 18 6 8 9 21 5 29 -3 9 -2 13 4 10 6 -3 11 4
12 17 3 39 5 52 11 68 15 36 24 189 22 360 -3 253 -4 272 -13 266 -4 -2 -6 13
-4 35 3 25 0 39 -8 39 -6 0 -9 4 -5 9 8 14 -15 101 -27 101 -5 0 -6 5 -3 10 8
13 -25 110 -37 110 -4 0 -7 3 -6 8 5 15 -25 71 -35 65 -6 -4 -7 -1 -3 6 10 16
-41 94 -56 85 -7 -4 -8 -3 -4 5 4 6 -8 30 -28 55 -42 50 -150 138 -160 129 -3
-3 -6 -1 -6 6 0 16 -187 104 -206 97 -8 -3 -13 -2 -10 3 7 11 -52 23 -67 14
-6 -4 -7 -1 -2 7 6 10 1 12 -18 8 -15 -3 -24 -2 -22 2 14 22 -442 45 -622 32z
m568 -45 c-10 -9 -11 -8 -5 6 3 10 9 15 12 12 3 -3 0 -11 -7 -18z m239 -73 c0
-8 -19 -13 -24 -6 -3 5 1 9 9 9 8 0 15 -2 15 -3z m75 -14 c3 -6 -1 -7 -9 -4
-18 7 -21 14 -7 14 6 0 13 -4 16 -10z m-1363 -47 c-6 -2 -9 -10 -6 -15 4 -7 2
-8 -5 -4 -13 9 -5 26 12 25 9 0 8 -2 -1 -6z m1458 -29 c0 -8 -19 -13 -24 -6
-3 5 1 9 9 9 8 0 15 -2 15 -3z m-1575 -63 c3 -5 2 -12 -3 -15 -5 -3 -9 1 -9 9
0 17 3 19 12 6z m248 -63 c9 -5 17 -6 17 -3 0 2 19 -15 42 -40 23 -24 46 -41
51 -38 6 3 7 1 3 -5 -4 -6 -1 -22 5 -34 7 -13 15 -60 18 -105 l6 -82 45 31
c114 78 266 127 398 128 71 0 192 -26 259 -56 30 -13 60 -21 66 -17 5 3 7 2 4
-4 -3 -5 10 -18 30 -29 20 -10 48 -30 63 -44 43 -42 85 -75 91 -73 3 1 6 -4 6
-11 0 -20 46 -77 58 -72 7 2 12 -2 12 -10 0 -7 -5 -10 -10 -7 -5 3 -2 -8 8
-25 16 -26 21 -29 34 -19 14 10 14 10 4 -4 -10 -12 -7 -30 15 -90 24 -67 27
-87 27 -214 0 -122 -3 -150 -25 -215 -13 -41 -24 -81 -23 -87 0 -7 -2 -11 -6
-9 -4 3 -19 -17 -34 -43 -14 -27 -33 -54 -42 -61 -16 -14 -21 -35 -5 -25 6 4
7 -1 3 -11 -5 -13 -8 -14 -11 -5 -3 8 -16 2 -38 -20 -18 -18 -30 -37 -27 -42
3 -6 2 -7 -4 -4 -12 8 -114 -68 -105 -78 4 -5 2 -5 -5 -2 -6 4 -37 -6 -70 -22
-32 -15 -70 -31 -85 -35 l-26 -6 -4 103 c-2 56 -8 109 -12 118 -5 12 1 19 23
29 17 7 28 17 24 23 -3 5 -1 7 5 4 15 -10 43 3 35 16 -3 5 -1 7 4 4 15 -9 105
72 96 86 -3 7 -3 9 2 5 10 -10 38 29 30 41 -3 5 0 13 6 17 8 5 9 3 4 -6 -6 -9
-4 -11 4 -6 7 5 10 15 7 23 -3 8 -2 12 3 9 25 -16 65 207 46 251 -5 10 -7 22
-6 27 5 21 -11 66 -21 60 -6 -4 -8 -2 -5 3 8 13 -17 77 -41 102 -9 10 -22 26
-28 37 -18 32 -115 106 -131 100 -8 -3 -12 -2 -9 3 7 10 -29 26 -95 41 -96 24
-323 -9 -302 -43 3 -6 1 -7 -6 -3 -15 9 -64 -21 -56 -34 3 -6 0 -7 -8 -4 -34
13 -156 -166 -162 -238 -1 -16 -5 -31 -9 -35 -17 -17 -1 -197 17 -186 6 4 8 0
4 -11 -9 -23 22 -98 37 -89 6 3 8 3 4 -2 -22 -24 88 -139 177 -182 42 -21 54
-31 48 -43 -4 -8 -9 -61 -11 -118 -4 -100 -4 -103 -25 -95 -12 4 -32 7 -44 8
-11 0 -19 3 -17 6 2 4 -6 9 -19 13 -12 3 -52 25 -89 49 -62 41 -68 43 -84 28
-17 -15 -17 -15 -5 1 11 15 5 26 -50 87 -52 56 -67 67 -79 57 -13 -9 -13 -9
-3 5 11 13 8 25 -17 70 -39 70 -69 165 -80 257 -11 81 -14 897 -5 913 7 10 68
3 98 -13z m91 3 c3 -4 -4 -17 -17 -27 -22 -19 -22 -19 -4 2 9 11 14 24 10 27
-3 4 -4 7 0 7 3 0 8 -4 11 -9z m121 -241 c3 -6 -1 -7 -9 -4 -18 7 -21 14 -7
14 6 0 13 -4 16 -10z m425 -995 c16 -8 37 -28 45 -43 9 -15 13 -18 10 -7 -3
11 -3 16 1 12 12 -11 4 -209 -9 -232 -6 -11 -10 -24 -8 -30 1 -5 -1 -7 -5 -2
-4 4 -16 -1 -27 -10 -44 -41 -141 -12 -167 48 -13 31 -5 258 8 244 2 -2 18 5
35 16 38 23 78 24 117 4z"/>
</g>
</svg>
